<svg width="20" height="20" viewBox="0 0 20 20" fill="none" xmlns="http://www.w3.org/2000/svg">
<path d="M8.4872 0C13.1672 0 16.9736 3.955 16.9736 8.81667C16.9736 10.9908 16.212 12.9833 14.952 14.5225L19.0416 18.7617C19.1672 18.8984 19.2366 19.0808 19.2348 19.27C19.233 19.4593 19.1603 19.6403 19.0322 19.7744C18.904 19.9085 18.7306 19.9852 18.549 19.9879C18.3673 19.9907 18.1918 19.9194 18.06 19.7892L13.9656 15.545C12.4346 16.8951 10.4931 17.6349 8.4872 17.6325C3.8072 17.6333 0 13.6775 0 8.81667C0 3.95583 3.808 0 8.4872 0ZM8.4872 1.45C4.5744 1.45 1.3912 4.75417 1.3912 8.81667C1.3912 12.8783 4.5744 16.1833 8.4872 16.1833C10.3461 16.1852 12.1313 15.4259 13.4576 14.0692L13.4896 14.03C13.5044 14.0146 13.5199 13.9998 13.536 13.9858C14.8478 12.6126 15.5836 10.7539 15.5824 8.81667C15.5824 4.75417 12.3992 1.45 8.4864 1.45H8.4872Z" fill="#0079FF"/>
</svg>
